<svg xmlns="http://www.w3.org/2000/svg" width="22" height="15" viewBox="0 0 22 15" fill="none">
  <path d="M14.2193 0.46934C14.36 0.328889 14.5506 0.25 14.7493 0.25C14.9481 0.25 15.1387 0.328889 15.2793 0.46934L21.7793 6.96934C21.9198 7.10997 21.9987 7.30059 21.9987 7.49934C21.9987 7.69809 21.9198 7.88871 21.7793 8.02934L15.2793 14.5293C15.1877 14.6281 15.0711 14.7002 14.9418 14.7383C14.8126 14.7763 14.6755 14.7787 14.5449 14.7453C14.4144 14.712 14.2953 14.644 14.2002 14.5486C14.105 14.4532 14.0374 14.334 14.0043 14.2033C13.9709 14.073 13.9733 13.936 14.0111 13.8068C14.0489 13.6777 14.1209 13.5611 14.2193 13.4693L20.1893 7.49934L14.2193 1.52934C14.0789 1.38871 14 1.19809 14 0.99934C14 0.800589 14.0789 0.609965 14.2193 0.46934ZM7.77934 0.46934C7.91979 0.609965 7.99868 0.800589 7.99868 0.99934C7.99868 1.19809 7.91979 1.38871 7.77934 1.52934L1.80934 7.49934L7.77934 13.4693C7.87806 13.561 7.95024 13.6776 7.98825 13.8069C8.02626 13.9361 8.02871 14.0732 7.99534 14.2037C7.96197 14.3343 7.89401 14.4534 7.79862 14.5485C7.70323 14.6437 7.58395 14.7113 7.45334 14.7443C7.32296 14.7778 7.18599 14.7754 7.05683 14.7376C6.92766 14.6998 6.81108 14.6278 6.71934 14.5293L0.21934 8.02934C0.0788896 7.88871 0 7.69809 0 7.49934C0 7.30059 0.0788896 7.10997 0.21934 6.96934L6.71934 0.46934C6.85997 0.328889 7.05059 0.25 7.24934 0.25C7.44809 0.25 7.63871 0.328889 7.77934 0.46934Z" fill="white"/>
</svg>