<svg width="442" height="422" viewBox="0 0 442 422" fill="none" xmlns="http://www.w3.org/2000/svg">
<path d="M421.311 14.3037V51.9778C421.311 155.491 337.397 239.404 233.885 239.404H135.239C64.4146 239.404 7 296.819 7 367.644V420.428" stroke="url(#paint0_linear_118_141)" stroke-width="2.95937" stroke-linecap="round"/>
<rect width="3" height="200" rx="1.5" transform="matrix(1 0 0 -1 5 417)" fill="url(#paint1_linear_118_141)"/>
<path d="M9.17587 221.686C13.3858 220.558 16.2271 217.51 15.522 214.879C14.817 212.248 10.8327 211.029 6.62274 212.157C2.41282 213.285 -0.428462 216.333 0.276567 218.964C0.981595 221.595 4.96595 222.814 9.17587 221.686Z" fill="white"/>
<path d="M14.5691 215.134C14.8019 216.003 14.4853 217.085 13.4705 218.173C12.4669 219.249 10.8755 220.209 8.92051 220.733C6.96555 221.257 5.10776 221.221 3.70037 220.791C2.27733 220.356 1.46211 219.577 1.22939 218.709C0.996671 217.84 1.31325 216.758 2.32803 215.67C3.33164 214.593 4.9231 213.634 6.87805 213.11C8.83301 212.586 10.6908 212.621 12.0982 213.052C13.5212 213.487 14.3364 214.266 14.5691 215.134Z" stroke="#56D364" stroke-width="1.97291"/>
<path d="M424.037 15.448C427.811 13.2687 429.767 9.58974 428.405 7.23067C427.043 4.87159 422.879 4.72579 419.105 6.90501C415.33 9.08423 413.374 12.7632 414.736 15.1223C416.098 17.4814 420.262 17.6272 424.037 15.448Z" fill="white"/>
<path d="M427.551 7.72394C428 8.50264 427.975 9.6298 427.276 10.9438C426.586 12.2433 425.297 13.5818 423.544 14.5937C421.791 15.6057 419.988 16.0527 418.517 16.0012C417.029 15.9491 416.041 15.4078 415.591 14.6291C415.141 13.8504 415.167 12.7233 415.865 11.4093C416.557 10.1098 417.845 8.77132 419.598 7.75935C421.351 6.7474 423.154 6.30039 424.625 6.35188C426.112 6.40396 427.102 6.94525 427.551 7.72394Z" stroke="#56D364" stroke-width="1.97291"/>
<defs>
<linearGradient id="paint0_linear_118_141" x1="164.152" y1="14.3037" x2="164.005" y2="420.432" gradientUnits="userSpaceOnUse">
<stop stop-color="#2EA043"/>
<stop offset="0.24" stop-color="#2EA043"/>
<stop offset="0.435" stop-color="#56D364"/>
<stop offset="0.66" stop-color="#2EA043"/>
<stop offset="0.791714" stop-color="#2EA043"/>
<stop offset="0.956186" stop-color="#196C2E" stop-opacity="0"/>
</linearGradient>
<linearGradient id="paint1_linear_118_141" x1="1.5" y1="0" x2="1.5" y2="200" gradientUnits="userSpaceOnUse">
<stop stop-color="#7EE787"/>
<stop offset="0.1" stop-color="#56D364"/>
<stop offset="0.688361" stop-color="#2EA043"/>
<stop offset="0.932292" stop-color="#2EA043"/>
<stop offset="1" stop-color="#7EE787" stop-opacity="0"/>
</linearGradient>
</defs>
</svg>
