<svg width="22" height="23" viewBox="0 0 22 23" fill="none" xmlns="http://www.w3.org/2000/svg">
<path d="M6.5 2.26855C6.5 1.30255 7.284 0.518555 8.25 0.518555H13.75C14.716 0.518555 15.5 1.30255 15.5 2.26855V4.51855H20.25C21.216 4.51855 22 5.30255 22 6.26855V20.7686C22 21.2327 21.8156 21.6778 21.4874 22.006C21.1592 22.3342 20.7141 22.5186 20.25 22.5186H1.75C1.28587 22.5186 0.840752 22.3342 0.512563 22.006C0.184374 21.6778 0 21.2327 0 20.7686V6.26855C0 5.30255 0.784 4.51855 1.75 4.51855H6.5V2.26855ZM1.5 12.5086V20.7686C1.5 20.9066 1.612 21.0186 1.75 21.0186H20.25C20.3163 21.0186 20.3799 20.9922 20.4268 20.9453C20.4737 20.8984 20.5 20.8349 20.5 20.7686V12.5086C19.7327 13.1617 18.7576 13.5198 17.75 13.5186H4.25C3.24237 13.5198 2.26732 13.1617 1.5 12.5086ZM20.5 9.26855V6.26855C20.5 6.20225 20.4737 6.13866 20.4268 6.09178C20.3799 6.04489 20.3163 6.01855 20.25 6.01855H1.75C1.6837 6.01855 1.62011 6.04489 1.57322 6.09178C1.52634 6.13866 1.5 6.20225 1.5 6.26855V9.26855C1.5 9.9979 1.78973 10.6974 2.30546 11.2131C2.82118 11.7288 3.52065 12.0186 4.25 12.0186H17.75C18.4793 12.0186 19.1788 11.7288 19.6945 11.2131C20.2103 10.6974 20.5 9.9979 20.5 9.26855ZM14 2.26855C14 2.20225 13.9737 2.13866 13.9268 2.09178C13.8799 2.04489 13.8163 2.01855 13.75 2.01855H8.25C8.1837 2.01855 8.12011 2.04489 8.07322 2.09178C8.02634 2.13866 8 2.20225 8 2.26855V4.51855H14V2.26855Z" fill="white"/>
</svg>
